<?xml version="1.0" encoding="UTF-8" standalone="no"?>
<svg xmlns="http://www.w3.org/2000/svg" version="1.0" width="1000.0" height="1000.0" id="c:\regular_star_polygon_8-3.svg">
<!-- X Coordinate transform: fx(x)=(x+1.1)*454.54544-->
<!-- Y Coordinate transform: fy(y)=(1.1-y)*454.54544 -->
<g style="stroke:#000000;stroke-width:5.0;stroke-opacity:1.00;fill-opacity:00">
<!-- Group: <Default>-->
</g>
<g style="stroke:#000000;stroke-width:5.0;stroke-opacity:1.00;fill-opacity:00">
<!-- Group: poly-->
<path d="M 954.545,500 178.588,178.588" />
<path d="M 500,954.545 178.588,178.588" />
<path d="M 500,954.545 821.412,178.588" />
<path d="M 45.455,500 821.412,178.588" />
<path d="M 45.455,500 821.412,821.412" />
<path d="M 500,45.455 821.412,821.412" />
<path d="M 500,45.455 178.588,821.412" />
<path d="M 954.545,500 178.588,821.412" />
</g>
<g style="stroke:#000000;stroke-width:0.6666667;fill:#ff007f">
<circle cx="954.545" cy="500" r="8.0"/>
<circle cx="178.588" cy="178.588" r="8.0"/>
<circle cx="178.588" cy="178.588" r="8.0"/>
<circle cx="500" cy="954.545" r="8.0"/>
<circle cx="500" cy="954.545" r="8.0"/>
<circle cx="821.412" cy="178.588" r="8.0"/>
<circle cx="821.412" cy="178.588" r="8.0"/>
<circle cx="45.455" cy="500" r="8.0"/>
<circle cx="45.455" cy="500" r="8.0"/>
<circle cx="821.412" cy="821.412" r="8.0"/>
<circle cx="821.412" cy="821.412" r="8.0"/>
<circle cx="500" cy="45.455" r="8.0"/>
<circle cx="500" cy="45.455" r="8.0"/>
<circle cx="178.588" cy="821.412" r="8.0"/>
<circle cx="178.588" cy="821.412" r="8.0"/>
<circle cx="954.545" cy="500" r="8.0"/>
</g>
</svg>
